# xmcd
#
# Track frame offsets: 
#        150
#        12584
#        25360
#        34196
#        46114
#        58155
#        67816
#        75970
#        89723
#        103444
#
# Disc length: 1515 seconds
#
# Revision: 0
# Processed by: cddbd v1.4PL0 Copyright (c) Steve Scherf et al.
# Submitted via: ExactAudioCopy v0.95a3
#
DISCID=8005e90a
DTITLE=Willie Nelson - Box Of Willie Nelson - Disc One
DYEAR=2003
DGENRE=Country
TTITLE0=Country Willie
TTITLE1=I Just Don't Understand
TTITLE2=Right From Wrong
TTITLE3=End Of Understanding
TTITLE4=Happiness Lives Next Door
TTITLE5=Let's Pretend
TTITLE6=Half A Man
TTITLE7=No Tomorrow In Sight
TTITLE8=Home Is Where The Heart Is
TTITLE9=I Feel Sorry For Him
EXTD=
EXTT0=
EXTT1=
EXTT2=
EXTT3=
EXTT4=
EXTT5=
EXTT6=
EXTT7=
EXTT8=
EXTT9=
PLAYORDER=
